<svg width="20" height="23" viewBox="0 0 20 23" fill="none" xmlns="http://www.w3.org/2000/svg">
<path d="M10 1.39671C10.9472 1.39671 11.8556 1.7646 12.5254 2.41943C13.1952 3.07427 13.5714 3.96242 13.5714 4.8885V5.58686H6.42857V4.8885C6.42857 3.96242 6.80485 3.07427 7.47462 2.41943C8.14439 1.7646 9.0528 1.39671 10 1.39671ZM15 5.58686V4.8885C15 3.59199 14.4732 2.34858 13.5355 1.43181C12.5979 0.515037 11.3261 0 10 0C8.67392 0 7.40215 0.515037 6.46447 1.43181C5.52678 2.34858 5 3.59199 5 4.8885V5.58686H0V19.554C0 20.2949 0.30102 21.0054 0.836838 21.5293C1.37266 22.0531 2.09938 22.3474 2.85714 22.3474H17.1429C17.9006 22.3474 18.6273 22.0531 19.1632 21.5293C19.699 21.0054 20 20.2949 20 19.554V5.58686H15Z" fill="white"/>
</svg>
