<svg width="39" height="43" viewBox="0 0 39 43" fill="none" xmlns="http://www.w3.org/2000/svg">
<path d="M16 2.25C17.5155 2.25 18.969 2.84263 20.0406 3.89752C21.1122 4.95242 21.7143 6.38316 21.7143 7.875V9H10.2857V7.875C10.2857 6.38316 10.8878 4.95242 11.9594 3.89752C13.031 2.84263 14.4845 2.25 16 2.25ZM24 9V7.875C24 5.78642 23.1571 3.78338 21.6569 2.30653C20.1566 0.829685 18.1217 0 16 0C13.8783 0 11.8434 0.829685 10.3431 2.30653C8.84286 3.78338 8 5.78642 8 7.875V9H0V31.5C0 32.6935 0.481631 33.8381 1.33894 34.682C2.19625 35.5259 3.35901 36 4.57143 36H27.4286C28.641 36 29.8038 35.5259 30.6611 34.682C31.5184 33.8381 32 32.6935 32 31.5V9H24Z" fill="white"/>
<ellipse cx="28.8" cy="32.71" rx="9.6" ry="9.66554" fill="#E43939"/>
</svg>
