<svg width="31" height="35" viewBox="0 0 31 35" fill="none" xmlns="http://www.w3.org/2000/svg">
<path d="M12.3059 15.2195C11.4254 15.2195 10.7317 15.8784 10.7317 16.6829C10.7317 17.4847 11.4416 18.1463 12.3059 18.1463C13.1847 18.1463 13.8784 17.4847 13.8784 16.6829C13.8963 15.877 13.1847 15.2195 12.3059 15.2195ZM17.9397 15.2195C17.0592 15.2195 16.3655 15.8784 16.3655 16.6829C16.3655 17.4847 17.0754 18.1463 17.9397 18.1463C18.8185 18.1463 19.5122 17.4847 19.5122 16.6829C19.5106 15.877 18.8185 15.2195 17.9397 15.2195Z" fill="white"/>
<path d="M26.7019 0.585205H3.54196C3.07563 0.586384 2.6141 0.67829 2.18372 0.855678C1.75335 1.03307 1.36255 1.29246 1.03365 1.61905C0.704752 1.94564 0.444187 2.33303 0.266835 2.75911C0.0894822 3.18518 -0.00118434 3.64159 1.16803e-05 4.10228V27.1852C1.16803e-05 29.1315 1.58998 30.7023 3.54196 30.7023H23.14L22.2213 27.541L24.4352 29.5736L26.5255 31.4858L30.2439 34.7315V4.10228C30.2451 3.64159 30.1544 3.18518 29.9771 2.75911C29.7997 2.33303 29.5391 1.94564 29.2102 1.61905C28.8813 1.29246 28.4906 1.03307 28.0602 0.855678C27.6298 0.67829 27.1683 0.586384 26.7019 0.585205ZM20.0292 22.8828C20.0292 22.8828 19.407 22.1495 18.8904 21.4971C21.1534 20.8645 22.0176 19.4663 22.0176 19.4663C21.3081 19.9264 20.635 20.2535 20.0292 20.4763C17.8238 21.3882 15.3951 21.637 13.0472 21.1916C12.1796 21.0233 11.3295 20.7766 10.5076 20.4548C10.0741 20.2921 9.65283 20.0993 9.24691 19.8779C9.19415 19.8401 9.14321 19.8258 9.09228 19.7916C9.06503 19.7788 9.04084 19.7604 9.02133 19.7377C8.71025 19.5688 8.53743 19.4502 8.53743 19.4502C8.53743 19.4502 9.36697 20.816 11.5627 21.4648C11.0443 22.1118 10.4039 22.8828 10.4039 22.8828C6.58544 22.7624 5.13556 20.2876 5.13556 20.2876C5.13556 14.7901 7.6242 10.3349 7.6242 10.3349C10.1128 8.48918 12.4796 8.5413 12.4796 8.5413L12.6524 8.74618C9.54161 9.63578 8.10628 10.9837 8.10628 10.9837C8.10628 10.9837 8.48831 10.7788 9.12684 10.4894C10.9751 9.6879 12.4432 9.46505 13.049 9.41293C13.1527 9.39676 13.24 9.37879 13.3437 9.37879C16.3403 8.97985 19.3873 9.54244 22.0357 10.9837C22.0357 10.9837 20.6695 9.70407 17.7316 8.81627L17.9735 8.5431C17.9735 8.5431 20.3421 8.49098 22.8289 10.3367C22.8289 10.3367 25.3175 14.7919 25.3175 20.2894C25.3175 20.2876 23.8495 22.7624 20.0292 22.8828Z" fill="white"/>
</svg>
