<svg width="1070" height="422" viewBox="0 0 1070 422" fill="none" xmlns="http://www.w3.org/2000/svg">
<g filter="url(#filter0_f_80_17)">
<g filter="url(#filter1_f_80_17)">
<path fill-rule="evenodd" clip-rule="evenodd" d="M923.952 109.291C931.499 110.048 939.905 106.445 946.285 110.529C952.66 114.61 953.515 123.372 956.667 130.234C959.522 136.452 962.264 142.415 963.97 149.038C966.143 157.468 973.459 167.547 968.044 174.38C962.279 181.656 949.446 174.609 940.863 178.197C933.861 181.123 931.21 190.585 923.952 192.809C916.075 195.223 907.392 193.828 899.731 190.802C891.452 187.531 881.168 183.532 878.819 174.979C876.339 165.954 887.953 158.389 888.258 149.038C888.547 140.171 878.365 132.668 880.477 124.05C882.566 115.529 890.525 108.608 898.863 105.777C906.995 103.016 915.404 108.435 923.952 109.291Z" fill="url(#paint0_linear_80_17)" fill-opacity="0.6"/>
</g>
<g filter="url(#filter2_f_80_17)">
<path fill-rule="evenodd" clip-rule="evenodd" d="M873 119.323C887.557 119.185 902.636 125.35 907.144 139.206C911.659 153.084 902.966 166.768 891.271 175.486C879.032 184.61 862.781 190.378 850.312 181.572C837.435 172.477 835.394 154.657 840.795 139.836C845.617 126.607 858.934 119.457 873 119.323Z" fill="url(#paint1_linear_80_17)" fill-opacity="0.6"/>
</g>
<g filter="url(#filter3_f_80_17)">
<path fill-rule="evenodd" clip-rule="evenodd" d="M897.75 223.211C903.408 225.203 908.823 232.97 914.122 230.173C919.658 227.25 916.278 218.077 918.484 212.265C919.869 208.618 924.568 206.339 924.649 202.443C924.734 198.318 918.526 195.704 918.912 191.597C919.437 186.026 927.125 182.664 927.037 177.07C926.961 172.255 921.755 169.125 918.5 165.544C914.721 161.386 911.895 153.802 906.257 154.204C899.709 154.671 896.982 163.101 892.084 167.426C889.293 169.89 886.265 171.891 883.457 174.336C880.852 176.603 878.515 178.994 876.037 181.396C872.87 184.465 865.894 186.258 866.707 190.569C867.68 195.729 879.042 194.438 879.483 199.668C880.111 207.101 866.921 212.157 869.132 219.287C870.788 224.627 880.265 219.456 885.857 220.223C889.953 220.784 893.854 221.839 897.75 223.211Z" fill="url(#paint2_linear_80_17)" fill-opacity="0.6"/>
</g>
</g>
<g filter="url(#filter4_f_80_17)">
<g filter="url(#filter5_f_80_17)">
<path fill-rule="evenodd" clip-rule="evenodd" d="M567.905 118.185C580.54 119.451 594.614 113.419 605.296 120.257C615.969 127.089 617.401 141.759 622.677 153.248C627.458 163.658 632.047 173.643 634.905 184.729C638.542 198.844 650.791 215.719 641.725 227.159C632.073 239.34 610.587 227.543 596.217 233.549C584.495 238.449 580.056 254.291 567.905 258.014C554.716 262.056 540.179 259.72 527.353 254.653C513.491 249.177 496.274 242.482 492.34 228.161C488.189 213.051 507.634 200.386 508.144 184.729C508.627 169.884 491.58 157.323 495.117 142.894C498.615 128.629 511.939 117.04 525.9 112.301C539.515 107.679 553.592 116.75 567.905 118.185Z" fill="url(#paint3_linear_80_17)" fill-opacity="0.5"/>
</g>
<g filter="url(#filter6_f_80_17)">
<path fill-rule="evenodd" clip-rule="evenodd" d="M482.599 134.98C506.97 134.748 532.217 145.07 539.764 168.268C547.323 191.505 532.769 214.415 513.189 229.01C492.698 244.286 465.49 253.944 444.614 239.2C423.054 223.973 419.636 194.137 428.68 169.324C436.753 147.176 459.048 135.204 482.599 134.98Z" fill="url(#paint4_linear_80_17)" fill-opacity="0.5"/>
</g>
<g filter="url(#filter7_f_80_17)">
<path fill-rule="evenodd" clip-rule="evenodd" d="M524.036 308.914C533.509 312.248 542.575 325.253 551.446 320.57C560.715 315.676 555.056 300.318 558.75 290.588C561.068 284.481 568.936 280.665 569.071 274.143C569.214 267.237 558.82 262.861 559.467 255.984C560.345 246.656 573.218 241.029 573.069 231.662C572.942 223.601 564.225 218.361 558.777 212.365C552.45 205.403 547.718 192.707 538.279 193.379C527.315 194.16 522.75 208.275 514.549 215.516C509.877 219.641 504.808 222.992 500.106 227.085C495.745 230.881 491.832 234.883 487.683 238.905C482.381 244.043 470.701 247.046 472.062 254.264C473.692 262.902 492.714 260.741 493.453 269.498C494.504 281.941 472.422 290.407 476.123 302.345C478.895 311.284 494.762 302.627 504.124 303.911C510.982 304.851 517.513 306.617 524.036 308.914Z" fill="url(#paint5_linear_80_17)" fill-opacity="0.5"/>
</g>
</g>
<g filter="url(#filter8_f_80_17)">
<g filter="url(#filter9_f_80_17)">
<path fill-rule="evenodd" clip-rule="evenodd" d="M185.952 104.291C193.499 105.048 201.905 101.445 208.285 105.529C214.66 109.61 215.515 118.372 218.667 125.234C221.522 131.452 224.264 137.415 225.97 144.038C228.143 152.468 235.459 162.547 230.044 169.38C224.279 176.656 211.446 169.609 202.863 173.197C195.861 176.123 193.21 185.585 185.952 187.809C178.075 190.223 169.392 188.828 161.731 185.802C153.452 182.531 143.168 178.532 140.819 169.979C138.339 160.954 149.953 153.389 150.258 144.038C150.546 135.171 140.365 127.668 142.477 119.05C144.566 110.529 152.525 103.608 160.863 100.777C168.995 98.0162 177.404 103.435 185.952 104.291Z" fill="url(#paint6_linear_80_17)" fill-opacity="0.6"/>
</g>
<g filter="url(#filter10_f_80_17)">
<path fill-rule="evenodd" clip-rule="evenodd" d="M135 114.323C149.557 114.185 164.636 120.35 169.144 134.206C173.659 148.084 164.966 161.768 153.271 170.486C141.032 179.61 124.781 185.378 112.312 176.572C99.435 167.477 97.3937 149.657 102.795 134.836C107.617 121.607 120.934 114.457 135 114.323Z" fill="url(#paint7_linear_80_17)" fill-opacity="0.6"/>
</g>
<g filter="url(#filter11_f_80_17)">
<path fill-rule="evenodd" clip-rule="evenodd" d="M159.75 218.211C165.408 220.203 170.823 227.97 176.122 225.173C181.658 222.25 178.278 213.077 180.484 207.265C181.869 203.618 186.568 201.339 186.649 197.443C186.734 193.318 180.526 190.704 180.912 186.597C181.437 181.026 189.125 177.664 189.037 172.07C188.961 167.255 183.755 164.125 180.5 160.544C176.721 156.386 173.895 148.802 168.257 149.204C161.709 149.671 158.982 158.101 154.084 162.426C151.293 164.89 148.265 166.891 145.457 169.336C142.852 171.603 140.515 173.994 138.037 176.396C134.87 179.465 127.894 181.258 128.707 185.569C129.68 190.729 141.042 189.438 141.483 194.668C142.111 202.101 128.921 207.157 131.132 214.287C132.788 219.627 142.265 214.456 147.857 215.223C151.953 215.784 155.854 216.839 159.75 218.211Z" fill="url(#paint8_linear_80_17)" fill-opacity="0.6"/>
</g>
</g>
<defs>
<filter id="filter0_f_80_17" x="788" y="55" width="232" height="225.774" filterUnits="userSpaceOnUse" color-interpolation-filters="sRGB">
<feFlood flood-opacity="0" result="BackgroundImageFix"/>
<feBlend mode="normal" in="SourceGraphic" in2="BackgroundImageFix" result="shape"/>
<feGaussianBlur stdDeviation="25" result="effect1_foregroundBlur_80_17"/>
</filter>
<filter id="filter1_f_80_17" x="778.472" y="5" width="291.528" height="289.038" filterUnits="userSpaceOnUse" color-interpolation-filters="sRGB">
<feFlood flood-opacity="0" result="BackgroundImageFix"/>
<feBlend mode="normal" in="SourceGraphic" in2="BackgroundImageFix" result="shape"/>
<feGaussianBlur stdDeviation="50" result="effect1_foregroundBlur_80_17"/>
</filter>
<filter id="filter2_f_80_17" x="738" y="19.3208" width="270.359" height="266.623" filterUnits="userSpaceOnUse" color-interpolation-filters="sRGB">
<feFlood flood-opacity="0" result="BackgroundImageFix"/>
<feBlend mode="normal" in="SourceGraphic" in2="BackgroundImageFix" result="shape"/>
<feGaussianBlur stdDeviation="50" result="effect1_foregroundBlur_80_17"/>
</filter>
<filter id="filter3_f_80_17" x="766.641" y="54.1887" width="260.396" height="276.585" filterUnits="userSpaceOnUse" color-interpolation-filters="sRGB">
<feFlood flood-opacity="0" result="BackgroundImageFix"/>
<feBlend mode="normal" in="SourceGraphic" in2="BackgroundImageFix" result="shape"/>
<feGaussianBlur stdDeviation="50" result="effect1_foregroundBlur_80_17"/>
</filter>
<filter id="filter4_f_80_17" x="374" y="61" width="321" height="310.575" filterUnits="userSpaceOnUse" color-interpolation-filters="sRGB">
<feFlood flood-opacity="0" result="BackgroundImageFix"/>
<feBlend mode="normal" in="SourceGraphic" in2="BackgroundImageFix" result="shape"/>
<feGaussianBlur stdDeviation="25" result="effect1_foregroundBlur_80_17"/>
</filter>
<filter id="filter5_f_80_17" x="391.759" y="11" width="353.241" height="349.071" filterUnits="userSpaceOnUse" color-interpolation-filters="sRGB">
<feFlood flood-opacity="0" result="BackgroundImageFix"/>
<feBlend mode="normal" in="SourceGraphic" in2="BackgroundImageFix" result="shape"/>
<feGaussianBlur stdDeviation="50" result="effect1_foregroundBlur_80_17"/>
</filter>
<filter id="filter6_f_80_17" x="324" y="34.9763" width="317.797" height="311.542" filterUnits="userSpaceOnUse" color-interpolation-filters="sRGB">
<feFlood flood-opacity="0" result="BackgroundImageFix"/>
<feBlend mode="normal" in="SourceGraphic" in2="BackgroundImageFix" result="shape"/>
<feGaussianBlur stdDeviation="50" result="effect1_foregroundBlur_80_17"/>
</filter>
<filter id="filter7_f_80_17" x="371.953" y="93.3538" width="301.118" height="328.222" filterUnits="userSpaceOnUse" color-interpolation-filters="sRGB">
<feFlood flood-opacity="0" result="BackgroundImageFix"/>
<feBlend mode="normal" in="SourceGraphic" in2="BackgroundImageFix" result="shape"/>
<feGaussianBlur stdDeviation="50" result="effect1_foregroundBlur_80_17"/>
</filter>
<filter id="filter8_f_80_17" x="50" y="50" width="232" height="225.774" filterUnits="userSpaceOnUse" color-interpolation-filters="sRGB">
<feFlood flood-opacity="0" result="BackgroundImageFix"/>
<feBlend mode="normal" in="SourceGraphic" in2="BackgroundImageFix" result="shape"/>
<feGaussianBlur stdDeviation="25" result="effect1_foregroundBlur_80_17"/>
</filter>
<filter id="filter9_f_80_17" x="40.4717" y="0" width="291.528" height="289.038" filterUnits="userSpaceOnUse" color-interpolation-filters="sRGB">
<feFlood flood-opacity="0" result="BackgroundImageFix"/>
<feBlend mode="normal" in="SourceGraphic" in2="BackgroundImageFix" result="shape"/>
<feGaussianBlur stdDeviation="50" result="effect1_foregroundBlur_80_17"/>
</filter>
<filter id="filter10_f_80_17" x="0" y="14.3208" width="270.358" height="266.623" filterUnits="userSpaceOnUse" color-interpolation-filters="sRGB">
<feFlood flood-opacity="0" result="BackgroundImageFix"/>
<feBlend mode="normal" in="SourceGraphic" in2="BackgroundImageFix" result="shape"/>
<feGaussianBlur stdDeviation="50" result="effect1_foregroundBlur_80_17"/>
</filter>
<filter id="filter11_f_80_17" x="28.6415" y="49.1887" width="260.396" height="276.585" filterUnits="userSpaceOnUse" color-interpolation-filters="sRGB">
<feFlood flood-opacity="0" result="BackgroundImageFix"/>
<feBlend mode="normal" in="SourceGraphic" in2="BackgroundImageFix" result="shape"/>
<feGaussianBlur stdDeviation="50" result="effect1_foregroundBlur_80_17"/>
</filter>
<linearGradient id="paint0_linear_80_17" x1="878.472" y1="185.134" x2="978.95" y2="145.595" gradientUnits="userSpaceOnUse">
<stop stop-color="#75156A"/>
<stop offset="1" stop-color="#51A2E5"/>
</linearGradient>
<linearGradient id="paint1_linear_80_17" x1="875.663" y1="87.9294" x2="812.926" y2="153.273" gradientUnits="userSpaceOnUse">
<stop stop-color="#5D0E47"/>
<stop offset="0.51418" stop-color="#DD5789"/>
<stop offset="1" stop-color="#7A2C9E"/>
</linearGradient>
<linearGradient id="paint2_linear_80_17" x1="893.269" y1="123.307" x2="962.995" y2="174.174" gradientUnits="userSpaceOnUse">
<stop stop-color="#170308"/>
<stop offset="1" stop-color="#951130"/>
</linearGradient>
<linearGradient id="paint3_linear_80_17" x1="491.759" y1="245.164" x2="659.985" y2="178.967" gradientUnits="userSpaceOnUse">
<stop stop-color="#75156A"/>
<stop offset="1" stop-color="#51A2E5"/>
</linearGradient>
<linearGradient id="paint4_linear_80_17" x1="487.056" y1="82.4195" x2="382.02" y2="191.821" gradientUnits="userSpaceOnUse">
<stop stop-color="#5D0E47"/>
<stop offset="0.51418" stop-color="#DD5789"/>
<stop offset="1" stop-color="#7A2C9E"/>
</linearGradient>
<linearGradient id="paint5_linear_80_17" x1="516.534" y1="141.65" x2="633.273" y2="226.813" gradientUnits="userSpaceOnUse">
<stop stop-color="#170308"/>
<stop offset="1" stop-color="#951130"/>
</linearGradient>
<linearGradient id="paint6_linear_80_17" x1="140.472" y1="180.134" x2="240.95" y2="140.595" gradientUnits="userSpaceOnUse">
<stop stop-color="#75156A"/>
<stop offset="1" stop-color="#51A2E5"/>
</linearGradient>
<linearGradient id="paint7_linear_80_17" x1="137.663" y1="82.9294" x2="74.9257" y2="148.273" gradientUnits="userSpaceOnUse">
<stop stop-color="#5D0E47"/>
<stop offset="0.51418" stop-color="#DD5789"/>
<stop offset="1" stop-color="#7A2C9E"/>
</linearGradient>
<linearGradient id="paint8_linear_80_17" x1="155.269" y1="118.307" x2="224.995" y2="169.174" gradientUnits="userSpaceOnUse">
<stop stop-color="#170308"/>
<stop offset="1" stop-color="#951130"/>
</linearGradient>
</defs>
</svg>
