<svg width="35" height="39" viewBox="0 0 35 39" fill="none" xmlns="http://www.w3.org/2000/svg">
<path d="M14.055 16.7144C13.0493 16.7144 12.2571 17.4669 12.2571 18.3858C12.2571 19.3015 13.0679 20.0572 14.055 20.0572C15.0588 20.0572 15.851 19.3015 15.851 18.3858C15.8714 17.4653 15.0588 16.7144 14.055 16.7144ZM20.4896 16.7144C19.484 16.7144 18.6917 17.4669 18.6917 18.3858C18.6917 19.3015 19.5025 20.0572 20.4896 20.0572C21.4934 20.0572 22.2857 19.3015 22.2857 18.3858C22.2838 17.4653 21.4934 16.7144 20.4896 16.7144Z" fill="#C5C5C5"/>
<path d="M30.4974 0H4.04542C3.5128 0.00134605 2.98567 0.106317 2.49412 0.308919C2.00257 0.511521 1.55623 0.807786 1.18058 1.1808C0.804927 1.55381 0.507325 1.99627 0.304763 2.48291C0.102201 2.96954 -0.00135269 3.49083 1.33406e-05 4.017V30.381C1.33406e-05 32.604 1.81598 34.398 4.04542 34.398H26.4292L25.3799 30.7874L27.9085 33.1089L30.2959 35.2929L34.5428 39V4.017C34.5442 3.49083 34.4407 2.96954 34.2381 2.48291C34.0355 1.99627 33.7379 1.55381 33.3623 1.1808C32.9866 0.807786 32.5403 0.511521 32.0487 0.308919C31.5572 0.106317 31.03 0.00134605 30.4974 0ZM22.8762 25.467C22.8762 25.467 22.1656 24.6295 21.5755 23.8844C24.1603 23.1619 25.1472 21.5649 25.1472 21.5649C24.3369 22.0904 23.5681 22.464 22.8762 22.7185C20.3573 23.76 17.5834 24.0442 14.9017 23.5355C13.9109 23.3432 12.9399 23.0615 12.0012 22.6939C11.5061 22.5081 11.0249 22.2879 10.5613 22.035C10.501 21.9919 10.4429 21.9755 10.3847 21.9365C10.3536 21.9219 10.3259 21.9009 10.3036 21.8749C9.94835 21.6819 9.75096 21.5465 9.75096 21.5465C9.75096 21.5465 10.6984 23.1065 13.2063 23.8475C12.6141 24.5864 11.8827 25.467 11.8827 25.467C7.52152 25.3295 5.86554 22.503 5.86554 22.503C5.86554 16.224 8.70792 11.1355 8.70792 11.1355C11.5503 9.02747 14.2535 9.087 14.2535 9.087L14.4509 9.321C10.8979 10.3371 9.25853 11.8765 9.25853 11.8765C9.25853 11.8765 9.69486 11.6425 10.4242 11.3121C12.5352 10.3966 14.2119 10.1421 14.9038 10.0825C15.0222 10.0641 15.122 10.0435 15.2404 10.0435C18.6629 9.58788 22.1431 10.2304 25.168 11.8765C25.168 11.8765 23.6076 10.4151 20.252 9.40105L20.5283 9.08905C20.5283 9.08905 23.2336 9.02953 26.0739 11.1376C26.0739 11.1376 28.9163 16.2261 28.9163 22.5051C28.9163 22.503 27.2395 25.3295 22.8762 25.467Z" fill="#C5C5C5"/>
</svg>
