<svg width="1158" height="719" viewBox="0 0 1158 719" fill="none" xmlns="http://www.w3.org/2000/svg">
<g filter="url(#filter0_f_158_1995)">
<g filter="url(#filter1_f_158_1995)">
<path fill-rule="evenodd" clip-rule="evenodd" d="M820.007 108.154C839.533 110.12 861.282 100.755 877.789 111.371C894.284 121.979 896.496 144.752 904.65 162.589C912.037 178.75 919.13 194.251 923.545 211.463C929.167 233.376 948.096 259.574 934.086 277.334C919.169 296.245 885.966 277.93 863.76 287.255C845.645 294.861 838.784 319.456 820.007 325.237C799.626 331.511 777.16 327.885 757.339 320.018C735.918 311.516 709.312 301.123 703.232 278.89C696.818 255.433 726.866 235.77 727.654 211.463C728.401 188.417 702.058 168.916 707.524 146.515C712.929 124.368 733.52 106.377 755.094 99.0191C776.134 91.8437 797.889 105.927 820.007 108.154Z" fill="url(#paint0_linear_158_1995)" fill-opacity="0.6"/>
</g>
<g filter="url(#filter2_f_158_1995)">
<path fill-rule="evenodd" clip-rule="evenodd" d="M687.647 133.911C725.347 133.554 764.402 149.491 776.077 185.31C787.77 221.188 765.255 256.562 734.968 279.098C703.27 302.684 661.181 317.597 628.887 294.831C595.537 271.32 590.25 225.253 604.24 186.94C616.727 152.742 651.217 134.257 687.647 133.911Z" fill="url(#paint1_linear_158_1995)" fill-opacity="0.6"/>
</g>
<g filter="url(#filter3_f_158_1995)">
<path fill-rule="evenodd" clip-rule="evenodd" d="M751.577 403.335C766.127 408.515 780.052 428.711 793.677 421.438C807.914 413.838 799.222 389.986 804.895 374.874C808.456 365.389 820.54 359.464 820.748 349.334C820.968 338.609 805.002 331.812 805.997 321.132C807.345 306.646 827.117 297.906 826.889 283.359C826.694 270.839 813.306 262.701 804.937 253.389C795.219 242.577 787.951 222.859 773.453 223.903C756.614 225.116 749.602 247.036 737.006 258.282C729.829 264.69 722.044 269.893 714.822 276.25C708.124 282.146 702.114 288.361 695.74 294.607C687.597 302.587 669.657 307.25 671.748 318.46C674.251 331.876 703.467 328.52 704.603 342.12C706.218 361.446 672.3 374.593 677.986 393.133C682.243 407.016 706.613 393.572 720.993 395.565C731.527 397.026 741.558 399.769 751.577 403.335Z" fill="url(#paint2_linear_158_1995)" fill-opacity="0.6"/>
</g>
</g>
<g filter="url(#filter4_f_158_1995)">
<g filter="url(#filter5_f_158_1995)">
<path fill-rule="evenodd" clip-rule="evenodd" d="M423.007 204.154C442.533 206.12 464.282 196.755 480.789 207.371C497.284 217.979 499.496 240.752 507.65 258.589C515.037 274.75 522.13 290.251 526.545 307.463C532.167 329.376 551.096 355.574 537.086 373.334C522.169 392.245 488.966 373.93 466.76 383.255C448.645 390.861 441.784 415.456 423.007 421.237C402.626 427.511 380.16 423.885 360.339 416.018C338.918 407.516 312.312 397.123 306.232 374.89C299.818 351.433 329.866 331.77 330.654 307.463C331.401 284.417 305.058 264.916 310.524 242.515C315.929 220.368 336.52 202.377 358.094 195.019C379.134 187.844 400.889 201.927 423.007 204.154Z" fill="url(#paint3_linear_158_1995)" fill-opacity="0.6"/>
</g>
<g filter="url(#filter6_f_158_1995)">
<path fill-rule="evenodd" clip-rule="evenodd" d="M290.647 229.911C328.347 229.554 367.402 245.491 379.077 281.31C390.77 317.188 368.255 352.562 337.968 375.098C306.27 398.684 264.181 413.597 231.887 390.831C198.537 367.32 193.25 321.253 207.24 282.94C219.727 248.742 254.217 230.257 290.647 229.911Z" fill="url(#paint4_linear_158_1995)" fill-opacity="0.6"/>
</g>
<g filter="url(#filter7_f_158_1995)">
<path fill-rule="evenodd" clip-rule="evenodd" d="M354.577 499.335C369.127 504.515 383.052 524.711 396.677 517.438C410.914 509.838 402.222 485.986 407.895 470.874C411.456 461.389 423.54 455.464 423.748 445.334C423.968 434.609 408.002 427.812 408.997 417.132C410.345 402.646 430.117 393.906 429.889 379.359C429.694 366.839 416.306 358.701 407.937 349.389C398.219 338.577 390.951 318.859 376.453 319.903C359.614 321.116 352.602 343.036 340.006 354.282C332.829 360.69 325.044 365.893 317.822 372.25C311.124 378.146 305.114 384.361 298.74 390.607C290.597 398.587 272.657 403.25 274.748 414.46C277.251 427.876 306.467 424.52 307.603 438.12C309.218 457.446 275.3 470.593 280.986 489.133C285.243 503.016 309.613 489.572 323.993 491.565C334.527 493.026 344.558 495.769 354.577 499.335Z" fill="url(#paint5_linear_158_1995)" fill-opacity="0.6"/>
</g>
</g>
<defs>
<filter id="filter0_f_158_1995" x="497" y="-3" width="542.146" height="526" filterUnits="userSpaceOnUse" color-interpolation-filters="sRGB">
<feFlood flood-opacity="0" result="BackgroundImageFix"/>
<feBlend mode="normal" in="SourceGraphic" in2="BackgroundImageFix" result="shape"/>
<feGaussianBlur stdDeviation="50" result="effect1_foregroundBlur_158_1995"/>
</filter>
<filter id="filter1_f_158_1995" x="484.335" y="-121" width="672.812" height="667.429" filterUnits="userSpaceOnUse" color-interpolation-filters="sRGB">
<feFlood flood-opacity="0" result="BackgroundImageFix"/>
<feBlend mode="normal" in="SourceGraphic" in2="BackgroundImageFix" result="shape"/>
<feGaussianBlur stdDeviation="109" result="effect1_foregroundBlur_158_1995"/>
</filter>
<filter id="filter2_f_158_1995" x="397" y="-66.0945" width="582.222" height="572.226" filterUnits="userSpaceOnUse" color-interpolation-filters="sRGB">
<feFlood flood-opacity="0" result="BackgroundImageFix"/>
<feBlend mode="normal" in="SourceGraphic" in2="BackgroundImageFix" result="shape"/>
<feGaussianBlur stdDeviation="100" result="effect1_foregroundBlur_158_1995"/>
</filter>
<filter id="filter3_f_158_1995" x="471.58" y="23.8633" width="555.312" height="599.137" filterUnits="userSpaceOnUse" color-interpolation-filters="sRGB">
<feFlood flood-opacity="0" result="BackgroundImageFix"/>
<feBlend mode="normal" in="SourceGraphic" in2="BackgroundImageFix" result="shape"/>
<feGaussianBlur stdDeviation="100" result="effect1_foregroundBlur_158_1995"/>
</filter>
<filter id="filter4_f_158_1995" x="100" y="93" width="542.146" height="526" filterUnits="userSpaceOnUse" color-interpolation-filters="sRGB">
<feFlood flood-opacity="0" result="BackgroundImageFix"/>
<feBlend mode="normal" in="SourceGraphic" in2="BackgroundImageFix" result="shape"/>
<feGaussianBlur stdDeviation="50" result="effect1_foregroundBlur_158_1995"/>
</filter>
<filter id="filter5_f_158_1995" x="87.335" y="-25" width="672.812" height="667.429" filterUnits="userSpaceOnUse" color-interpolation-filters="sRGB">
<feFlood flood-opacity="0" result="BackgroundImageFix"/>
<feBlend mode="normal" in="SourceGraphic" in2="BackgroundImageFix" result="shape"/>
<feGaussianBlur stdDeviation="109" result="effect1_foregroundBlur_158_1995"/>
</filter>
<filter id="filter6_f_158_1995" x="0" y="29.9055" width="582.222" height="572.226" filterUnits="userSpaceOnUse" color-interpolation-filters="sRGB">
<feFlood flood-opacity="0" result="BackgroundImageFix"/>
<feBlend mode="normal" in="SourceGraphic" in2="BackgroundImageFix" result="shape"/>
<feGaussianBlur stdDeviation="100" result="effect1_foregroundBlur_158_1995"/>
</filter>
<filter id="filter7_f_158_1995" x="74.5801" y="119.863" width="555.312" height="599.137" filterUnits="userSpaceOnUse" color-interpolation-filters="sRGB">
<feFlood flood-opacity="0" result="BackgroundImageFix"/>
<feBlend mode="normal" in="SourceGraphic" in2="BackgroundImageFix" result="shape"/>
<feGaussianBlur stdDeviation="100" result="effect1_foregroundBlur_158_1995"/>
</filter>
<linearGradient id="paint0_linear_158_1995" x1="702.335" y1="305.286" x2="962.623" y2="203.332" gradientUnits="userSpaceOnUse">
<stop stop-color="#75156A"/>
<stop offset="1" stop-color="#51A2E5"/>
</linearGradient>
<linearGradient id="paint1_linear_158_1995" x1="694.542" y1="52.7555" x2="532.374" y2="221.977" gradientUnits="userSpaceOnUse">
<stop stop-color="#5D0E47"/>
<stop offset="0.51418" stop-color="#DD5789"/>
<stop offset="1" stop-color="#7A2C9E"/>
</linearGradient>
<linearGradient id="paint2_linear_158_1995" x1="740.055" y1="143.564" x2="920.734" y2="273.92" gradientUnits="userSpaceOnUse">
<stop stop-color="#170308"/>
<stop offset="1" stop-color="#951130"/>
</linearGradient>
<linearGradient id="paint3_linear_158_1995" x1="305.335" y1="401.286" x2="565.623" y2="299.332" gradientUnits="userSpaceOnUse">
<stop stop-color="#75156A"/>
<stop offset="1" stop-color="#51A2E5"/>
</linearGradient>
<linearGradient id="paint4_linear_158_1995" x1="297.542" y1="148.756" x2="135.374" y2="317.977" gradientUnits="userSpaceOnUse">
<stop stop-color="#5D0E47"/>
<stop offset="0.51418" stop-color="#DD5789"/>
<stop offset="1" stop-color="#7A2C9E"/>
</linearGradient>
<linearGradient id="paint5_linear_158_1995" x1="343.055" y1="239.564" x2="523.734" y2="369.92" gradientUnits="userSpaceOnUse">
<stop stop-color="#170308"/>
<stop offset="1" stop-color="#951130"/>
</linearGradient>
</defs>
</svg>
