<svg width="27" height="31" viewBox="0 0 27 31" fill="none" xmlns="http://www.w3.org/2000/svg">
<path d="M10.7675 13.6584C9.9971 13.6584 9.39014 14.235 9.39014 14.9389C9.39014 15.6405 10.0113 16.2194 10.7675 16.2194C11.5365 16.2194 12.1435 15.6405 12.1435 14.9389C12.1591 14.2338 11.5365 13.6584 10.7675 13.6584ZM15.6971 13.6584C14.9267 13.6584 14.3197 14.235 14.3197 14.9389C14.3197 15.6405 14.9409 16.2194 15.6971 16.2194C16.4661 16.2194 17.0731 15.6405 17.0731 14.9389C17.0716 14.2338 16.4661 13.6584 15.6971 13.6584Z" fill="white"/>
<path d="M23.3642 0.853516H3.09921C2.69117 0.854547 2.28734 0.934965 1.91076 1.09018C1.53418 1.24539 1.19223 1.47236 0.904446 1.75813C0.616658 2.0439 0.388664 2.38286 0.23348 2.75568C0.0782969 3.12849 -0.0010363 3.52785 1.02203e-05 3.93095V24.1285C1.02203e-05 25.8316 1.39123 27.206 3.09921 27.206H20.2475L19.4436 24.4399L21.3808 26.2184L23.2098 27.8916L26.4634 30.7316V3.93095C26.4644 3.52785 26.3851 3.12849 26.2299 2.75568C26.0748 2.38286 25.8468 2.0439 25.559 1.75813C25.2712 1.47236 24.9292 1.24539 24.5527 1.09018C24.1761 0.934965 23.7722 0.854547 23.3642 0.853516ZM17.5255 20.3639C17.5255 20.3639 16.9812 19.7223 16.5291 19.1515C18.5093 18.5979 19.2654 17.3745 19.2654 17.3745C18.6446 17.7771 18.0556 18.0633 17.5255 18.2583C15.5958 19.0561 13.4707 19.2738 11.4163 18.8841C10.6572 18.7368 9.91333 18.521 9.19415 18.2394C8.81485 18.0971 8.44623 17.9284 8.09104 17.7346C8.04488 17.7016 8.00031 17.689 7.95574 17.6591C7.9319 17.6479 7.91074 17.6318 7.89366 17.612C7.62147 17.4641 7.47025 17.3603 7.47025 17.3603C7.47025 17.3603 8.1961 18.5555 10.1174 19.1232C9.66372 19.6893 9.10342 20.3639 9.10342 20.3639C5.76226 20.2585 4.49361 18.0931 4.49361 18.0931C4.49361 13.2828 6.67117 9.38449 6.67117 9.38449C8.84873 7.7695 10.9196 7.8151 10.9196 7.8151L11.0709 7.99437C8.34891 8.77277 7.09299 9.95217 7.09299 9.95217C7.09299 9.95217 7.42727 9.7729 7.98599 9.51972C9.60324 8.81837 10.8878 8.62338 11.4179 8.57778C11.5086 8.56362 11.585 8.5479 11.6757 8.5479C14.2977 8.19883 16.9639 8.6911 19.2813 9.95217C19.2813 9.95217 18.0858 8.83253 15.5151 8.0557L15.7268 7.81667C15.7268 7.81667 17.7993 7.77107 19.9753 9.38606C19.9753 9.38606 22.1529 13.2844 22.1529 18.0947C22.1529 18.0931 20.8683 20.2585 17.5255 20.3639Z" fill="white"/>
</svg>
