<svg width="52" height="59" viewBox="0 0 52 59" fill="none" xmlns="http://www.w3.org/2000/svg">
<rect x="6" y="10" width="40" height="32" fill="#12030B"/>
<path d="M20.9419 24.9043C19.4435 24.9043 18.2631 26.0256 18.2631 27.3947C18.2631 28.7591 19.4712 29.8852 20.9419 29.8852C22.4376 29.8852 23.6181 28.7591 23.6181 27.3947C23.6485 26.0232 22.4376 24.9043 20.9419 24.9043ZM30.5295 24.9043C29.0311 24.9043 27.8506 26.0256 27.8506 27.3947C27.8506 28.7591 29.0588 29.8852 30.5295 29.8852C32.0252 29.8852 33.2056 28.7591 33.2056 27.3947C33.2029 26.0232 32.0252 24.9043 30.5295 24.9043Z" fill="#C5C5C5"/>
<path d="M45.4412 0H6.02768C5.23408 0.00200562 4.44865 0.158412 3.71624 0.460289C2.98383 0.762166 2.31878 1.2036 1.75906 1.75939C1.19934 2.31518 0.755914 2.97444 0.454097 3.69953C0.15228 4.42462 -0.0020155 5.20133 1.98775e-05 5.98533V45.2677C1.98775e-05 48.58 2.70581 51.253 6.02768 51.253H39.3795L37.8161 45.8733L41.5837 49.3323L45.1409 52.5865L51.4688 58.11V5.98533C51.4709 5.20133 51.3166 4.42462 51.0148 3.69953C50.7129 2.97444 50.2695 2.31518 49.7098 1.75939C49.1501 1.2036 48.485 0.762166 47.7526 0.460289C47.0202 0.158412 46.2348 0.00200562 45.4412 0ZM34.0855 37.9458C34.0855 37.9458 33.0267 36.698 32.1475 35.5878C35.9988 34.5112 37.4693 32.1318 37.4693 32.1318C36.2619 32.9147 35.1165 33.4714 34.0855 33.8506C30.3324 35.4024 26.1992 35.8258 22.2036 35.0679C20.7272 34.7814 19.2805 34.3616 17.8818 33.8139C17.1441 33.5371 16.4271 33.209 15.7363 32.8321C15.6465 32.7679 15.5599 32.7435 15.4732 32.6853C15.4268 32.6636 15.3856 32.6323 15.3524 32.5936C14.823 32.3061 14.5289 32.1042 14.5289 32.1042C14.5289 32.1042 15.9406 34.4286 19.6774 35.5327C18.795 36.6338 17.7053 37.9458 17.7053 37.9458C11.2071 37.7409 8.73966 33.5295 8.73966 33.5295C8.73966 24.1738 12.9748 16.5919 12.9748 16.5919C17.21 13.4509 21.2377 13.5396 21.2377 13.5396L21.5318 13.8883C16.2378 15.4022 13.7952 17.696 13.7952 17.696C13.7952 17.696 14.4453 17.3474 15.532 16.855C18.6774 15.4909 21.1758 15.1117 22.2067 15.023C22.3831 14.9954 22.5317 14.9649 22.7082 14.9649C27.8078 14.2859 32.9932 15.2434 37.5003 17.696C37.5003 17.696 35.1753 15.5184 30.1754 14.0076L30.5872 13.5427C30.5872 13.5427 34.618 13.454 38.8501 16.595C38.8501 16.595 43.0852 24.1768 43.0852 33.5325C43.0852 33.5295 40.5869 37.7409 34.0855 37.9458Z" fill="#C5C5C5"/>
</svg>
