<svg width="64" height="24" viewBox="0 0 64 24" fill="none" xmlns="http://www.w3.org/2000/svg">
<rect x="0.5" y="0.5" width="63" height="23" stroke="white"/>
<path d="M49.4767 6H50.5232C50.6162 6 50.6627 6.04651 50.6627 6.13953V18.4186C50.6627 18.5116 50.6162 18.5581 50.5232 18.5581H49.4767C49.3837 18.5581 49.3372 18.5116 49.3372 18.4186V6.13953C49.3372 6.04651 49.3837 6 49.4767 6Z" fill="#818181"/>
<path d="M44.1395 11.6162H55.8605C55.9535 11.6162 56 11.6627 56 11.7557V12.8023C56 12.8953 55.9535 12.9418 55.8605 12.9418H44.1395C44.0465 12.9418 44 12.8953 44 12.8023V11.7557C44 11.6627 44.0465 11.6162 44.1395 11.6162Z" fill="#818181"/>
<path d="M8 11H20V12.6H8V11Z" fill="#818181"/>
</svg>
