<svg width="34" height="34" viewBox="0 0 34 34" fill="none" xmlns="http://www.w3.org/2000/svg">
<path d="M32.64 0H1.36C0.60775 0 0 0.60775 0 1.36V32.64C0 33.3923 0.60775 34 1.36 34H32.64C33.3923 34 34 33.3923 34 32.64V1.36C34 0.60775 33.3923 0 32.64 0ZM26.1502 12.3123C26.163 12.512 26.163 12.7203 26.163 12.9243C26.163 19.1632 21.4115 26.35 12.7288 26.35C10.0513 26.35 7.56925 25.5723 5.47825 24.2335C5.86075 24.276 6.22625 24.293 6.61725 24.293C8.82725 24.293 10.8588 23.545 12.478 22.2785C10.404 22.236 8.6615 20.876 8.0665 19.006C8.79325 19.1123 9.44775 19.1123 10.1958 18.921C9.12784 18.704 8.16797 18.1241 7.47922 17.2796C6.79047 16.4351 6.41532 15.3782 6.4175 14.2885V14.229C7.04225 14.5817 7.7775 14.7985 8.54675 14.8282C7.90008 14.3973 7.36975 13.8134 7.00277 13.1284C6.6358 12.4434 6.44352 11.6784 6.443 10.9012C6.443 10.0215 6.6725 9.21825 7.08475 8.52125C8.27009 9.98043 9.74921 11.1739 11.426 12.024C13.1027 12.8741 14.9396 13.3618 16.8173 13.4555C16.15 10.2468 18.547 7.65 21.4285 7.65C22.7885 7.65 24.0125 8.2195 24.8752 9.1375C25.942 8.93775 26.962 8.53825 27.8715 8.00275C27.5187 9.095 26.7793 10.0173 25.7975 10.5995C26.7495 10.4975 27.6675 10.234 28.5175 9.86425C27.8757 10.8078 27.0725 11.645 26.1502 12.3123Z" fill="white"/>
</svg>
