<svg width="150" height="101" viewBox="0 0 150 101" fill="none" xmlns="http://www.w3.org/2000/svg">
<path d="M0 84.1667V16.8333C0 12.3689 1.97544 8.08723 5.49175 4.93037C9.00806 1.77351 13.7772 0 18.75 0H131.25C136.223 0 140.992 1.77351 144.508 4.93037C148.025 8.08723 150 12.3689 150 16.8333V84.1667C150 88.6311 148.025 92.9128 144.508 96.0696C140.992 99.2265 136.223 101 131.25 101H18.75C13.7772 101 9.00806 99.2265 5.49175 96.0696C1.97544 92.9128 0 88.6311 0 84.1667ZM63.6562 26.0328C62.9553 25.5847 62.1306 25.3185 61.2724 25.2633C60.4142 25.2082 59.5556 25.3661 58.7907 25.7199C58.0258 26.0737 57.3842 26.6096 56.936 27.269C56.4879 27.9284 56.2505 28.6859 56.25 29.4583V71.5417C56.2505 72.3141 56.4879 73.0716 56.936 73.731C57.3842 74.3904 58.0258 74.9263 58.7907 75.2801C59.5556 75.6339 60.4142 75.7918 61.2724 75.7367C62.1306 75.6815 62.9553 75.4153 63.6562 74.9672L96.4687 53.9256C97.0764 53.5363 97.5717 53.0223 97.9134 52.4265C98.2552 51.8307 98.4334 51.1702 98.4334 50.5C98.4334 49.8298 98.2552 49.1693 97.9134 48.5735C97.5717 47.9777 97.0764 47.4637 96.4687 47.0744L63.6562 26.0328V26.0328Z" fill="#C5C5C5"/>
</svg>
