<svg width="41" height="32" viewBox="0 0 41 32" fill="none" xmlns="http://www.w3.org/2000/svg">
<path d="M39.5357 0H1.46429C0.654353 0 0 0.65 0 1.45455V8.72727H41V1.45455C41 0.65 40.3456 0 39.5357 0ZM0 30.5455C0 31.35 0.654353 32 1.46429 32H39.5357C40.3456 32 41 31.35 41 30.5455V12.7273H0V30.5455ZM26.4944 22.1818C26.4944 21.9818 26.6592 21.8182 26.8605 21.8182H34.4107C34.6121 21.8182 34.7768 21.9818 34.7768 22.1818V25.4545C34.7768 25.6545 34.6121 25.8182 34.4107 25.8182H26.8605C26.6592 25.8182 26.4944 25.6545 26.4944 25.4545V22.1818Z" fill="white"/>
</svg>
