<svg width="52" height="52" viewBox="0 0 52 52" fill="none" xmlns="http://www.w3.org/2000/svg">
<path d="M49.92 0H2.08C0.9295 0 0 0.9295 0 2.08V49.92C0 51.0705 0.9295 52 2.08 52H49.92C51.0705 52 52 51.0705 52 49.92V2.08C52 0.9295 51.0705 0 49.92 0ZM39.9945 18.8305C40.014 19.136 40.014 19.4545 40.014 19.7665C40.014 29.3085 32.747 40.3 19.4675 40.3C15.3725 40.3 11.5765 39.1105 8.3785 37.063C8.9635 37.128 9.5225 37.154 10.1205 37.154C13.5005 37.154 16.6075 36.01 19.084 34.073C15.912 34.008 13.247 31.928 12.337 29.068C13.4485 29.2305 14.4495 29.2305 15.5935 28.938C13.9602 28.6062 12.4922 27.7191 11.4388 26.4276C10.3854 25.136 9.81166 23.5196 9.815 21.853V21.762C10.7705 22.3015 11.895 22.633 13.0715 22.6785C12.0825 22.0194 11.2714 21.1264 10.7101 20.0787C10.1489 19.031 9.8548 17.861 9.854 16.6725C9.854 15.327 10.205 14.0985 10.8355 13.0325C12.6484 15.2642 14.9105 17.0894 17.475 18.3896C20.0395 19.6897 22.8489 20.4357 25.7205 20.579C24.7 15.6715 28.366 11.7 32.773 11.7C34.853 11.7 36.725 12.571 38.0445 13.975C39.676 13.6695 41.236 13.0585 42.627 12.2395C42.0875 13.91 40.9565 15.3205 39.455 16.211C40.911 16.055 42.315 15.652 43.615 15.0865C42.6335 16.5295 41.405 17.81 39.9945 18.8305Z" fill="#C5C5C5"/>
</svg>
